<svg xmlns="http://www.w3.org/2000/svg" xmlns:xlink="http://www.w3.org/1999/xlink" xmlns:lucid="lucid" width="670.62" height="564.68"><g transform="translate(1550.1181088911467 1217.8994997375082)" lucid:page-tab-id="Rye-OaQ3.NGJ"><path d="M-1289.92-1006.43a5 5 0 0 1 5-5h150a5 5 0 0 1 5 5v96.28a5 5 0 0 1-5 5h-150a5 5 0 0 1-5-5z" stroke="#282c33" fill="#fff"/><use xlink:href="#a" transform="matrix(1,0,0,1,-1289.9207242251082,-1011.4265095020953) translate(49.241884765625 39.20515625)"/><use xlink:href="#b" transform="matrix(1,0,0,1,-1289.9207242251082,-1011.4265095020953) translate(10.583764648437494 59.45990234375)"/><use xlink:href="#c" transform="matrix(1,0,0,1,-1289.9207242251082,-1011.4265095020953) translate(53.5208837890625 59.45990234375)"/><use xlink:href="#d" transform="matrix(1,0,0,1,-1289.9207242251082,-1011.4265095020953) translate(69.30454589843751 59.45990234375)"/><use xlink:href="#e" transform="matrix(1,0,0,1,-1289.9207242251082,-1011.4265095020953) translate(80.8214697265625 59.45990234375)"/><use xlink:href="#f" transform="matrix(1,0,0,1,-1289.9207242251082,-1011.4265095020953) translate(122.8267724609375 59.45990234375)"/><use xlink:href="#g" transform="matrix(1,0,0,1,-1289.9207242251082,-1011.4265095020953) translate(55.8095556640625 79.7146484375)"/><path d="M-1040-875a5 5 0 0 1 5-5h150a5 5 0 0 1 5 5v96.28a5 5 0 0 1-5 5h-150a5 5 0 0 1-5-5z" stroke="#282c33" fill="#9391ff"/><use xlink:href="#h" transform="matrix(1,0,0,1,-1040,-880) translate(52.0332470703125 59.685625)"/><path d="M-1400-755a5 5 0 0 1 5-5h150a5 5 0 0 1 5 5v96.28a5 5 0 0 1-5 5h-150a5 5 0 0 1-5-5z" stroke="#282c33" fill="#9391ff"/><use xlink:href="#i" transform="matrix(1,0,0,1,-1400,-760) translate(39.985024414062494 59.685625)"/><path d="M-1549.62-1006.43a5 5 0 0 1 5-5h150a5 5 0 0 1 5 5v96.28a5 5 0 0 1-5 5h-150a5 5 0 0 1-5-5z" stroke="#282c33" fill="#9391ff"/><use xlink:href="#j" transform="matrix(1,0,0,1,-1549.6181088911467,-1011.4265095020953) translate(47.6357275390625 59.685625)"/><path d="M-1388.12-958.3h96.7" stroke="#333" stroke-width="2" fill="none"/><path d="M-1388.1-957.3h-1.02v-1.96h1.03zM-1290.42-957.3h-1.03v-1.96h1.03z" stroke="#333" stroke-width=".05" fill="#333"/><path d="M-1319.55-761.4l71.1-142.36" stroke="#333" stroke-width="2" fill="none"/><path d="M-1318.67-760.98l-.24.48h-2.2l.7-1.35zM-1247.6-903.3l-1.73-.87.24-.48h2.2z" stroke="#333" stroke-width=".05" fill="#333"/><path d="M-1041.27-827.5l-92.86-76.5" stroke="#333" stroke-width="2" fill="none"/><path d="M-1040.5-828.13v2.53l-1.4-1.16 1.23-1.5zM-1133.5-904.75l-1.23 1.5-1.7-1.4h1.53l.84-.07.47-.1z" stroke="#333" stroke-width=".05" fill="#333"/><path d="M-1380-1212.4a5 5 0 0 1 5-5h150a5 5 0 0 1 5 5v96.28a5 5 0 0 1-5 5h-150a5 5 0 0 1-5-5z" stroke="#282c33" fill="#9391ff"/><use xlink:href="#k" transform="matrix(1,0,0,1,-1380,-1217.3994997375082) translate(33.723872070312495 59.685625)"/><path d="M-1299.33-1109.88l88.73 97.22" stroke="#333" stroke-width="2" fill="none"/><path d="M-1298.6-1110.52l-1.43 1.3-1.3-1.4h2.65zM-1208.6-1011.93h-2.64l-.1-.1 1.45-1.3z" stroke="#333" stroke-width=".05" fill="#333"/><path d="M-1040-1186.73a5 5 0 0 1 5-5h150a5 5 0 0 1 5 5v96.28a5 5 0 0 1-5 5h-150a5 5 0 0 1-5-5z" stroke="#282c33" fill="#9391ff"/><g><use xlink:href="#l" transform="matrix(1,0,0,1,-1040,-1191.729124836057) translate(51.105517578125 59.685625)"/></g><path d="M-1041.08-1137.77l-89.37 126.64" stroke="#333" stroke-width="2" fill="none"/><path d="M-1040.5-1137.34l-1.4-.98 1.4-1.96zM-1129.64-1010.6l-.75 1.07-.07-.13-.56-.66-.66-.56-.1-.06.56-.78z" stroke="#333" stroke-width=".05" fill="#333"/><defs><path d="M571 0L49-1490h339c138 427 271 775 384 1244 111-471 237-815 371-1244h337L970 0H571" id="m"/><path d="M633 22C291 22 81-200 81-553c0-345 210-579 537-579 292 0 525 185 525 567v84H378c7 183 109 277 260 277 105 0 184-46 216-132l272 51C1071-99 893 22 633 22zM380-669h474c-15-146-94-237-233-237-143 0-229 99-241 237" id="n"/><path d="M428-647V0H128v-1118h283l4 231c63-156 176-245 348-245 232 0 384 159 384 421V0H847v-659c0-139-76-222-202-222-128 0-217 86-217 234" id="o"/><path d="M537 19C279 19 81-185 81-557c0-382 206-575 454-575 190 0 278 113 318 202h10v-560h300V0H868v-179h-15C812-89 719 19 537 19zm92-241c153 0 240-134 240-336 0-203-86-334-240-334-158 0-240 138-240 334 0 197 84 336 240 336" id="p"/><path d="M440 22C227 22 68-92 68-313c0-250 202-322 422-343 195-21 271-24 271-105 0-95-63-149-175-149-116 0-187 57-211 129l-275-46c57-194 237-305 487-305 240 0 474 108 474 379V0H777v-155h-10C713-51 605 22 440 22zm85-211c140 0 238-93 238-211v-121c-37 26-156 42-222 51-111 16-185 59-185 149 0 87 70 132 169 132" id="q"/><path d="M572 22C302 22 117-98 78-306l279-48c29 105 101 156 224 156 114 0 185-48 185-115 0-118-228-130-337-155-215-49-322-150-322-317 0-215 187-347 470-347 265 0 424 116 466 298l-266 47c-24-76-87-130-196-130-98 0-174 46-174 113 0 56 38 95 144 117l201 40c216 44 320 143 320 302 0 220-207 367-500 367" id="r"/><g id="a"><use transform="matrix(0.008173828125000001,0,0,0.008173828125000001,0,0)" xlink:href="#m"/><use transform="matrix(0.008173828125000001,0,0,0.008173828125000001,11.476054687500001,0)" xlink:href="#n"/><use transform="matrix(0.008173828125000001,0,0,0.008173828125000001,21.448125000000005,0)" xlink:href="#o"/><use transform="matrix(0.008173828125000001,0,0,0.008173828125000001,31.869755859375005,0)" xlink:href="#p"/><use transform="matrix(0.008173828125000001,0,0,0.008173828125000001,42.42216796875,0)" xlink:href="#q"/><use transform="matrix(0.008173828125000001,0,0,0.008173828125000001,52.140849609375,0)" xlink:href="#r"/></g><path d="M789 20c-398 0-667-293-667-764 0-473 273-766 655-766 315 0 558 198 612 487h-196c-61-191-204-311-415-311-262 0-471 207-471 590 0 380 208 588 482 588 249 0 420-165 425-427H828v-166h572v163c0 370-256 606-611 606" id="s"/><path d="M158 0v-1118h174v172h12c41-113 157-188 290-188 26 0 70 2 91 3v181c-11-2-60-10-108-10-161 0-279 109-279 260V0H158" id="t"/><path d="M471 26C259 26 90-98 90-318c0-256 228-303 435-329 202-27 287-16 287-108 0-139-79-219-234-219-161 0-248 86-283 164l-173-57c86-203 278-265 451-265 150 0 419 46 419 395V0H815v-152h-12C765-73 660 26 471 26zm31-159c199 0 310-134 310-271v-155c-30 35-226 55-295 64-131 17-246 59-246 186 0 116 97 176 231 176zm187-1180c-99 0-192-83-243-83-35 0-51 40-53 79H267c4-120 55-208 162-208 104 0 174 85 241 85 33 0 49-23 56-81h123c-4 126-62 208-160 208" id="u"/><path d="M613 24c-304 0-509-231-509-576 0-350 205-580 509-580 305 0 511 230 511 580 0 345-206 576-511 576zm0-161c226 0 329-195 329-415 0-222-103-419-329-419-223 0-326 196-326 419 0 220 103 415 326 415" id="v"/><g id="b"><use transform="matrix(0.008173828125000001,0,0,0.008173828125000001,0,0)" xlink:href="#s"/><use transform="matrix(0.008173828125000001,0,0,0.008173828125000001,12.489609375000002,0)" xlink:href="#t"/><use transform="matrix(0.008173828125000001,0,0,0.008173828125000001,18.791630859375005,0)" xlink:href="#u"/><use transform="matrix(0.008173828125000001,0,0,0.008173828125000001,28.191533203125005,0)" xlink:href="#v"/></g><path d="M226-283v-166h904v166H226zm0-434v-166h904v166H226" id="w"/><use transform="matrix(0.008173828125000001,0,0,0.008173828125000001,0,0)" xlink:href="#w" id="c"/><path d="M653-1490V0H466v-1314h-10L96-1047v-204l324-239h233" id="x"/><use transform="matrix(0.008173828125000001,0,0,0.008173828125000001,0,0)" xlink:href="#x" id="d"/><path d="M338-1490V0H158v-1490h180" id="y"/><path d="M158 0v-1118h180V0H158zm91-1301c-68 0-125-53-125-119s57-119 125-119c69 0 126 53 126 119s-57 119-126 119" id="z"/><path d="M338-670V0H158v-1118h173l1 207c72-158 192-221 342-221 226 0 378 139 378 422V0H872v-695c0-172-96-275-252-275-161 0-282 109-282 300" id="A"/><path d="M338-670V0H158v-1490h180v566c73-149 190-208 336-208 226 0 379 139 379 422V0H872v-695c0-172-96-275-252-275-161 0-282 109-282 300" id="B"/><path d="M471 26C259 26 90-98 90-318c0-256 228-303 435-329 202-27 287-16 287-108 0-139-79-219-234-219-161 0-248 86-283 164l-173-57c86-203 278-265 451-265 150 0 419 46 419 395V0H815v-152h-12C765-73 660 26 471 26zm31-159c199 0 310-134 310-271v-155c-30 35-226 55-295 64-131 17-246 59-246 186 0 116 97 176 231 176" id="C"/><g id="e"><use transform="matrix(0.008173828125000001,0,0,0.008173828125000001,0,0)" xlink:href="#y"/><use transform="matrix(0.008173828125000001,0,0,0.008173828125000001,4.05421875,0)" xlink:href="#z"/><use transform="matrix(0.008173828125000001,0,0,0.008173828125000001,8.1084375,0)" xlink:href="#A"/><use transform="matrix(0.008173828125000001,0,0,0.008173828125000001,17.99876953125,0)" xlink:href="#B"/><use transform="matrix(0.008173828125000001,0,0,0.008173828125000001,27.897275390625005,0)" xlink:href="#C"/></g><path d="M158 418v-1536h174v179h20c37-59 106-193 324-193 279 0 474 222 474 576 0 356-194 580-473 580-213 0-288-135-325-197h-14v591H158zm492-555c209 0 317-186 317-421 0-232-105-413-317-413-206 0-314 166-314 413 0 249 111 421 314 421" id="D"/><g id="f"><use transform="matrix(0.008173828125000001,0,0,0.008173828125000001,0,0)" xlink:href="#D"/><use transform="matrix(0.008173828125000001,0,0,0.008173828125000001,10.249980468750001,0)" xlink:href="#v"/><use transform="matrix(0.008173828125000001,0,0,0.008173828125000001,20.287441406250004,0)" xlink:href="#t"/></g><path d="M481 0L54-1118h197c107 314 236 620 325 951 87-331 217-637 324-951h197L670 0H481" id="E"/><path d="M628 24c-324 0-524-230-524-574 0-343 198-582 503-582 237 0 487 146 487 559v75H286c9 234 145 362 343 362 132 0 231-58 273-172l174 48C1024-91 857 24 628 24zM287-650h624c-17-190-120-322-304-322-192 0-309 151-320 322" id="F"/><path d="M577 24c-279 0-473-224-473-580 0-354 195-576 474-576 218 0 287 134 324 193h14v-551h180V0H922v-173h-20C865-111 790 24 577 24zm27-161c203 0 314-172 314-421 0-247-108-413-314-413-212 0-317 181-317 413 0 235 108 421 317 421" id="G"/><g id="g"><use transform="matrix(0.008173828125000001,0,0,0.008173828125000001,0,0)" xlink:href="#E"/><use transform="matrix(0.008173828125000001,0,0,0.008173828125000001,9.081123046875001,0)" xlink:href="#F"/><use transform="matrix(0.008173828125000001,0,0,0.008173828125000001,18.840673828125002,0)" xlink:href="#A"/><use transform="matrix(0.008173828125000001,0,0,0.008173828125000001,28.731005859375003,0)" xlink:href="#G"/><use transform="matrix(0.008173828125000001,0,0,0.008173828125000001,38.980986328125006,0)" xlink:href="#C"/></g><path d="M75-1237v-253h1217v253H837V0H531v-1237H75" id="H"/><path d="M128 0v-1118h278l12 217c60-163 185-234 319-234 143 0 236 81 288 251 63-172 205-251 359-251 205 0 357 138 357 381V0h-301v-697c0-126-76-187-177-187-114 0-184 79-184 196V0H789v-705c0-109-72-179-174-179-106 0-187 74-187 208V0H128" id="I"/><path d="M128 418v-1536h295v188h14c41-89 129-202 319-202 248 0 453 193 453 575 0 372-197 576-455 576-183 0-275-108-317-198h-9v597H128zm534-640c156 0 240-139 240-336 0-196-83-334-240-334-154 0-241 131-241 334 0 202 88 336 241 336" id="J"/><path d="M628 22C291 22 81-210 81-554c0-346 210-578 547-578 336 0 547 232 547 578 0 344-211 576-547 576zm0-236c160 0 242-146 242-341 0-197-82-341-242-341S387-753 387-555c0 195 81 341 241 341" id="K"/><g id="h"><use transform="matrix(0.008173828125000001,0,0,0.008173828125000001,0,0)" xlink:href="#H"/><use transform="matrix(0.008173828125000001,0,0,0.008173828125000001,9.865810546875,0)" xlink:href="#n"/><use transform="matrix(0.008173828125000001,0,0,0.008173828125000001,19.837880859375,0)" xlink:href="#I"/><use transform="matrix(0.008173828125000001,0,0,0.008173828125000001,35.114765625000004,0)" xlink:href="#J"/><use transform="matrix(0.008173828125000001,0,0,0.008173828125000001,45.667177734375,0)" xlink:href="#K"/></g><path d="M128 0v-1118h290v195h12c54-169 184-238 367-200v268c-27-8-86-15-130-15-138 0-239 95-239 234V0H128" id="L"/><g id="i"><use transform="matrix(0.008173828125000001,0,0,0.008173828125000001,0,0)" xlink:href="#m"/><use transform="matrix(0.008173828125000001,0,0,0.008173828125000001,11.476054687500001,0)" xlink:href="#n"/><use transform="matrix(0.008173828125000001,0,0,0.008173828125000001,21.448125000000005,0)" xlink:href="#o"/><use transform="matrix(0.008173828125000001,0,0,0.008173828125000001,31.869755859375005,0)" xlink:href="#p"/><use transform="matrix(0.008173828125000001,0,0,0.008173828125000001,42.42216796875,0)" xlink:href="#n"/><use transform="matrix(0.008173828125000001,0,0,0.008173828125000001,52.394238281250004,0)" xlink:href="#p"/><use transform="matrix(0.008173828125000001,0,0,0.008173828125000001,62.94665039062501,0)" xlink:href="#K"/><use transform="matrix(0.008173828125000001,0,0,0.008173828125000001,73.21297851562501,0)" xlink:href="#L"/></g><path d="M135 0v-1490h581c339 0 533 210 533 503 0 295-197 500-540 500H440V0H135zm305-733h220c186 0 274-104 274-254s-88-251-275-251H440v505" id="M"/><path d="M513 14c-232 0-385-159-385-421v-711h300v659c0 139 76 222 202 222 127 0 217-86 217-234v-647h301V0H864l-4-232C797-74 683 14 513 14" id="N"/><path d="M683-1118v229H474v562c0 71 29 104 102 104 23 0 73-7 95-13l43 225C647 9 580 16 520 16 296 16 174-96 174-301v-588H20v-229h154v-266h300v266h209" id="O"/><g id="j"><use transform="matrix(0.008173828125000001,0,0,0.008173828125000001,0,0)" xlink:href="#M"/><use transform="matrix(0.008173828125000001,0,0,0.008173828125000001,10.846669921875002,0)" xlink:href="#L"/><use transform="matrix(0.008173828125000001,0,0,0.008173828125000001,17.254951171875003,0)" xlink:href="#K"/><use transform="matrix(0.008173828125000001,0,0,0.008173828125000001,27.521279296875004,0)" xlink:href="#p"/><use transform="matrix(0.008173828125000001,0,0,0.008173828125000001,38.073691406250006,0)" xlink:href="#N"/><use transform="matrix(0.008173828125000001,0,0,0.008173828125000001,48.495322265625006,0)" xlink:href="#O"/><use transform="matrix(0.008173828125000001,0,0,0.008173828125000001,54.462216796875005,0)" xlink:href="#K"/></g><path d="M625 442c-280 0-454-114-503-274l258-72c28 63 97 128 243 128 153 0 246-69 246-216v-206h-23C805-108 717-16 536-16 284-16 81-191 81-561c0-378 208-571 456-571 188 0 280 113 321 202h13v-188h295V-9c0 303-226 451-541 451zm5-686c153 0 240-119 240-319 0-198-86-329-240-329-158 0-241 137-241 329 0 195 85 319 241 319" id="P"/><g id="k"><use transform="matrix(0.008173828125000001,0,0,0.008173828125000001,0,0)" xlink:href="#M"/><use transform="matrix(0.008173828125000001,0,0,0.008173828125000001,10.634150390625,0)" xlink:href="#q"/><use transform="matrix(0.008173828125000001,0,0,0.008173828125000001,20.352832031250003,0)" xlink:href="#P"/><use transform="matrix(0.008173828125000001,0,0,0.008173828125000001,30.929765625,0)" xlink:href="#q"/><use transform="matrix(0.008173828125000001,0,0,0.008173828125000001,40.648447265625,0)" xlink:href="#I"/><use transform="matrix(0.008173828125000001,0,0,0.008173828125000001,55.92533203125001,0)" xlink:href="#n"/><use transform="matrix(0.008173828125000001,0,0,0.008173828125000001,65.89740234375,0)" xlink:href="#o"/><use transform="matrix(0.008173828125000001,0,0,0.008173828125000001,76.319033203125,0)" xlink:href="#O"/><use transform="matrix(0.008173828125000001,0,0,0.008173828125000001,82.28592773437501,0)" xlink:href="#K"/></g><path d="M786 20C389 20 94-260 94-744c0-487 299-766 692-766 339 0 597 194 641 529h-309c-28-162-156-258-326-258-233 0-388 179-388 495 0 323 157 493 387 493 170 0 298-97 328-259h309c-34 277-266 530-642 530" id="Q"/><path d="M428-1490V0H128v-1490h300" id="R"/><path d="M128 0v-1118h300V0H128zm150-1264c-91 0-165-68-165-154 0-85 74-154 165-154 90 0 165 69 165 154 0 86-75 154-165 154" id="S"/><g id="l"><use transform="matrix(0.008173828125000001,0,0,0.008173828125000001,0,0)" xlink:href="#Q"/><use transform="matrix(0.008173828125000001,0,0,0.008173828125000001,12.383349609375001,0)" xlink:href="#R"/><use transform="matrix(0.008173828125000001,0,0,0.008173828125000001,16.91982421875,0)" xlink:href="#S"/><use transform="matrix(0.008173828125000001,0,0,0.008173828125000001,21.456298828125,0)" xlink:href="#n"/><use transform="matrix(0.008173828125000001,0,0,0.008173828125000001,31.428369140625,0)" xlink:href="#o"/><use transform="matrix(0.008173828125000001,0,0,0.008173828125000001,41.85000000000001,0)" xlink:href="#O"/><use transform="matrix(0.008173828125000001,0,0,0.008173828125000001,47.81689453125,0)" xlink:href="#n"/></g></defs></g></svg>